<svg xmlns="http://www.w3.org/2000/svg" width="160.539" height="72.175" viewBox="-2 -2 160.539 72.175"><g id="svgGroup" stroke-linecap="round" fill-rule="nonzero" font-size="9pt" stroke="#fff" stroke-width="0.5" fill="#fff" style="stroke:#fff;stroke-width:0.5;fill:#fff"><path d="M 156.539 17.25 Q 155.564 17.7 154.814 18.6 Q 154.064 19.5 154.064 21.9 L 154.064 57.15 Q 154.064 60.225 153.277 62.363 Q 152.489 64.5 150.764 65.85 Q 149.039 67.2 146.189 68.175 L 144.989 64.95 Q 146.264 64.425 147.202 63.675 Q 148.139 62.925 148.739 61.913 Q 149.339 60.9 149.602 59.663 Q 149.864 58.425 149.864 57.075 L 149.864 48.75 Q 148.664 50.25 146.939 51.225 Q 145.214 52.2 143.264 52.688 Q 141.314 53.175 139.439 53.175 Q 136.289 53.175 133.852 52.425 Q 131.414 51.675 129.727 50.138 Q 128.039 48.6 127.177 46.238 Q 126.314 43.875 126.314 40.65 L 126.314 14.925 L 130.589 14.925 L 130.589 40.35 Q 130.589 42.975 131.452 44.7 Q 132.314 46.425 133.739 47.4 Q 135.164 48.375 136.889 48.788 Q 138.614 49.2 140.339 49.2 Q 142.364 49.2 144.089 48.413 Q 145.814 47.625 147.089 46.275 Q 148.364 44.925 149.114 43.163 Q 149.864 41.4 149.864 39.45 L 149.864 21.825 Q 149.864 20.1 150.427 18.563 Q 150.989 17.025 152.152 15.863 Q 153.314 14.7 155.039 14.1 L 156.539 17.25 Z M 109.739 52.5 L 104.714 52.5 L 90.389 28.725 L 86.489 32.025 L 86.489 52.5 L 82.214 52.5 L 82.214 0 L 86.489 0 L 86.489 27.375 L 101.489 13.5 L 104.489 16.35 L 93.389 26.1 L 109.739 52.5 Z M 71.264 19.575 Q 70.289 18.9 69.052 18.488 Q 67.814 18.075 66.502 17.85 Q 65.189 17.625 63.914 17.625 Q 62.414 17.625 60.802 17.963 Q 59.189 18.3 57.839 19.013 Q 56.489 19.725 55.664 20.85 Q 54.839 21.975 54.839 23.55 Q 54.839 25.425 56.002 26.7 Q 57.164 27.975 59.039 28.988 Q 60.914 30 63.164 30.863 Q 65.414 31.725 67.702 32.737 Q 69.989 33.75 71.864 35.1 Q 73.739 36.45 74.902 38.363 Q 76.064 40.275 76.064 43.05 Q 76.064 45.75 74.939 47.775 Q 73.814 49.8 71.939 51.15 Q 70.064 52.5 67.777 53.175 Q 65.489 53.85 63.089 53.85 Q 59.114 53.85 55.364 52.125 Q 51.614 50.4 48.989 47.4 L 51.314 44.925 Q 53.039 46.575 54.839 47.7 Q 56.639 48.825 58.702 49.388 Q 60.764 49.95 63.089 49.95 Q 64.514 49.95 66.089 49.575 Q 67.664 49.2 69.052 48.338 Q 70.439 47.475 71.302 46.2 Q 72.164 44.925 72.164 43.125 Q 72.164 41.1 71.002 39.638 Q 69.839 38.175 67.964 37.088 Q 66.089 36 63.802 35.1 Q 61.514 34.2 59.227 33.225 Q 56.939 32.25 55.064 30.975 Q 53.189 29.7 52.027 27.938 Q 50.864 26.175 50.864 23.7 Q 50.864 21.3 51.914 19.538 Q 52.964 17.775 54.727 16.538 Q 56.489 15.3 58.664 14.7 Q 60.839 14.1 63.089 14.1 Q 64.589 14.1 66.164 14.288 Q 67.739 14.475 69.464 15.038 Q 71.189 15.6 72.989 16.725 L 71.264 19.575 Z M 14.114 33.6 Q 14.114 30.45 15.052 28.275 Q 15.989 26.1 17.639 24.788 Q 19.289 23.475 21.352 22.875 Q 23.414 22.275 25.664 22.275 Q 28.139 22.275 30.464 22.838 Q 32.789 23.4 34.927 24.3 Q 37.064 25.2 38.789 26.25 Q 38.789 23.475 37.852 21.75 Q 36.914 20.025 35.302 19.125 Q 33.689 18.225 31.589 17.888 Q 29.489 17.55 27.239 17.55 L 27.389 14.325 Q 31.964 14.325 34.964 15.188 Q 37.964 16.05 39.727 17.963 Q 41.489 19.875 42.239 23.063 Q 42.989 26.25 42.989 30.9 L 42.989 52.5 Q 43.064 52.5 42.202 52.575 Q 41.339 52.65 39.952 52.763 Q 38.564 52.875 36.952 52.988 Q 35.339 53.1 33.802 53.175 Q 32.264 53.25 31.139 53.25 Q 27.539 53.325 24.427 52.8 Q 21.314 52.275 19.027 50.813 Q 16.739 49.35 15.427 46.65 Q 14.114 43.95 14.114 39.825 L 14.114 33.6 Z M 38.789 29.775 Q 36.839 28.725 34.589 27.825 Q 32.339 26.925 30.014 26.4 Q 27.689 25.875 25.289 25.875 Q 24.314 25.875 23.114 26.175 Q 21.914 26.475 20.789 27.263 Q 19.664 28.05 18.952 29.625 Q 18.239 31.2 18.239 33.75 L 18.239 39.3 Q 18.239 42 18.802 44.025 Q 19.364 46.05 20.752 47.363 Q 22.139 48.675 24.614 49.238 Q 27.089 49.8 30.839 49.65 Q 32.339 49.575 33.577 49.5 Q 34.814 49.425 35.789 49.313 Q 36.764 49.2 37.439 49.163 Q 38.114 49.125 38.452 49.088 L 38.789 49.05 L 38.789 29.775 Z M 4.214 42.6 Q 4.214 44.55 4.777 46.088 Q 5.339 47.625 6.427 48.638 Q 7.514 49.65 9.164 50.25 L 7.889 53.475 Q 3.764 52.2 1.889 49.575 Q 0.014 46.95 0.014 42.6 L 0.014 0 L 4.214 0 L 4.214 15 L 13.289 15 L 11.489 18.9 L 4.214 18.9 L 4.214 42.6 Z M 115.739 0 L 119.939 0 L 119.939 52.5 L 115.739 52.5 L 115.739 0 Z"/></g></svg>
